<svg xmlns="http://www.w3.org/2000/svg" width="432" height="51" viewBox="0 0 432 51" fill="none"><path fill-rule="evenodd" clip-rule="evenodd" d="M377.324 22.5267C377.767 16.7355 377.668 10.7662 373.484 6.11148C363.126 -2.00136 339.372 -2.20353 329.021 6.50483C322.661 12.9134 320.122 22.8286 319.892 31.3559L319.883 32.9338C319.847 37.5254 320.57 41.0205 323.3 44.9501C326.234 47.9346 330.374 49.3848 334.551 50.1716C344.306 51.4209 357.737 51.9532 366.266 46.5595C373.711 40.6326 376.066 31.2217 377.324 22.5267ZM339.235 15.6602L340.54 14.1939C345.265 10.4628 351.927 10.2726 357.843 11.3352C360.07 12.0124 361.16 13.0987 362.426 14.9092C363.796 18.2908 363.288 21.5663 362.446 25.0117L362.119 26.2461L362.113 26.2672C361.437 28.8476 360.768 31.4014 359.585 33.8279C357.473 36.836 354.933 38.8141 351.238 39.9769C346.334 40.8834 340.462 41.1876 336.163 38.5486C334.863 36.9345 334.344 35.902 334.118 33.8815L334.167 31.9681C334.211 28.9997 334.634 26.419 335.467 23.5616L336.086 21.6327C336.666 19.7925 337.167 18.2619 338.313 16.6661L339.235 15.6602Z" fill="#00FD00"></path><path d="M146.159 10.1206C145.544 7.31981 144.791 4.98833 143.261 2.49941C139.779 0.166124 135.174 0.533269 131.127 0.961606C127.275 2.05805 125.372 4.32686 123.191 7.35758L122.188 8.84737L121.061 10.5171L119.916 12.227C118.821 13.8539 117.727 15.4814 116.636 17.1104C112.822 22.809 108.99 28.4971 105.135 34.1721C103.487 36.5987 101.84 39.0266 100.194 41.4547L95.9564 47.7039L97.1851 39.693L68.3111 39.1208C68.2709 37.8768 68.254 37.3546 68.3097 36.8401C68.35 36.468 68.4284 36.1 68.5635 35.4656L68.9217 33.9315L69.3257 32.1828C69.6256 30.9059 69.923 29.6283 70.2179 28.3503C70.6934 26.2894 71.172 24.2292 71.6516 22.1691C72.1294 20.1213 72.6062 18.0734 73.0787 16.0247L73.5306 14.0643L73.969 12.2033L74.3788 10.4218C74.5598 9.64572 74.6873 9.09861 74.795 8.54764C75.0522 7.23134 75.196 5.89309 75.6828 1.35865L75.6832 1.35496H62.1678C61.867 1.91519 61.7135 2.20115 61.5951 2.50088C61.4717 2.81306 61.3865 3.14023 61.2125 3.80785L60.8362 5.46901L60.4071 7.35233L59.9456 9.40391C59.5346 11.2182 59.1234 13.0324 58.7149 14.8471C58.2903 16.7349 57.8645 18.6223 57.4363 20.5093C56.6209 24.1005 55.8124 27.6929 55.0218 31.289C54.6245 33.1055 54.226 34.9214 53.8084 36.734C53.7235 37.1016 53.6394 37.4694 53.5561 37.8375C53.5065 38.0562 53.4574 38.275 53.4085 38.4939C53.33 38.8453 53.2523 39.1969 53.1756 39.5487L52.9095 40.7815C52.1737 44.0518 52.3377 45.9279 54.1814 48.8483C56.3853 50.0034 58.4513 50.1382 60.954 50.1796L62.4029 50.1862C64.0247 50.2072 65.6464 50.2256 67.2684 50.2361L69.0023 50.2453C72.0055 50.2659 75.0087 50.2856 78.012 50.2943C81.1585 50.3024 84.3042 50.3189 87.4504 50.3578C89.9066 50.3882 92.3623 50.4082 94.8187 50.4152C95.9914 50.4166 97.1642 50.4195 98.3369 50.4241C100.021 50.4504 101.704 50.476 103.388 50.4729L104.936 50.4657C106.86 50.5164 108.157 50.3937 110.086 49.9928C111.115 49.0656 111.823 48.1438 112.561 47.0041L113.158 45.9872L114.243 44.3777L115.241 42.7999L116.394 40.9823C117.01 40.0052 117.625 39.0281 118.243 38.0521C119.59 35.9256 120.934 33.7972 122.275 31.6677L123.721 29.374C126.694 24.6587 129.663 19.9414 132.628 15.2217L133.431 13.9436C133.761 14.2047 133.945 14.35 134.06 14.5371C134.204 14.7722 134.24 15.0732 134.321 15.7524L134.603 17.4062L134.927 19.2762L135.272 21.3153L136.072 25.9549C136.306 27.3155 136.539 28.6762 136.772 30.037C137.148 32.237 137.524 34.4369 137.904 36.6363L138.267 38.7318L138.608 40.7498L138.937 42.6526C139.375 45.2173 140.023 47.4504 140.803 49.9928H154.319C154.319 48.7335 154.319 48.167 154.262 47.6061C154.216 47.1476 154.133 46.6927 153.981 45.8659L153.502 43.664C153.226 42.3861 152.949 41.1082 152.668 39.831L152.067 37.0865C151.649 35.1757 151.231 33.2651 150.81 31.3549C150.263 28.8748 149.718 26.3944 149.18 23.9126C149.002 23.093 148.824 22.2735 148.645 21.4541C148.402 20.337 148.157 19.2201 147.911 18.1033C147.707 17.1773 147.503 16.2512 147.299 15.3249C147.013 13.9979 146.726 12.6711 146.432 11.3456L146.159 10.1206Z" fill="#00FD00"></path><path fill-rule="evenodd" clip-rule="evenodd" d="M20.3294 1.2461L18.5084 1.26281C15.8079 1.2828 13.8238 1.47833 11.4847 2.78554C10.3362 3.85527 9.58276 4.55713 9.00474 5.38062C7.90234 6.95144 7.43828 8.96509 6.08918 14.8194L5.63896 16.8627L5.52575 17.3626L5.52303 17.3741C5.14821 19.0287 4.77346 20.6831 4.40613 22.3391C3.98714 24.2363 3.56543 26.1327 3.13416 28.0275C2.79485 29.517 2.4585 31.0069 2.12389 32.4974L1.64574 34.6369C1.09153 37.0792 0.541033 39.5164 0.119487 41.9818C-0.0696148 44.2783 -0.243391 46.3894 1.34812 48.2761C2.45653 48.9874 3.15213 49.4338 3.90977 49.7147C5.18644 50.1881 6.63935 50.1919 10.5404 50.2019L12.699 50.1805C14.2157 50.1783 15.7323 50.1753 17.249 50.1716C19.634 50.1535 22.0188 50.1358 24.4039 50.1302C25.3711 50.1288 26.3384 50.1269 27.3055 50.1242L29.0856 50.1188L33.4874 50.1016L35.5007 50.0849C39.7889 50.0562 43.9473 49.15 47.1308 46.2912C50.7755 41.9296 51.3153 36.9843 51.2944 31.615C51.0108 29.0831 50.3378 28.0413 48.2683 26.3891L46.8093 25.3878C48.3934 24.7635 49.7173 23.9606 51.148 23.0632C53.4845 21.1623 54.2719 19.0367 54.7957 16.2324C55.1509 11.7994 55.4042 7.98611 52.2231 4.43065C48.661 1.62889 45.6288 1.15869 41.0874 1.14583L39.142 1.16721C37.7674 1.16943 36.3927 1.17246 35.018 1.17614C32.8623 1.19425 30.7067 1.21194 28.5508 1.21751C27.1375 1.21972 25.7241 1.22349 24.3107 1.2289L22.2861 1.23873L20.3294 1.2461ZM20.9966 12.7032C21.1243 12.4219 21.2943 12.1595 21.6214 11.6548C22.938 11.233 24.1126 11.0808 25.5029 11.0085L28.7607 11.0043L30.5293 11.011L32.2979 11.0043L34.212 11.0068C36.8053 11.0087 38.7454 11.0103 40.6659 12.7991C40.8928 15.1775 40.71 17.0046 39.4372 19.0935C37.7185 20.2938 36.587 20.7877 34.4377 21.005L32.3027 20.9778L29.9809 20.961L27.5728 20.9174C24.7696 20.8904 21.9668 20.86 19.164 20.8101C19.4245 18.9551 19.6966 17.1294 20.1551 15.3071L20.5846 14.0151C20.7695 13.3345 20.8584 13.0078 20.9966 12.7032ZM15.478 39.693C15.4009 36.0334 15.8432 33.3338 17.321 29.9655C19.1736 29.9537 21.0262 29.9442 22.8788 29.9375L25.1538 29.9297L27.4 29.9152L29.5598 29.9095L29.8237 29.9082C31.8816 29.8976 33.7842 29.8879 35.7511 30.5376C36.4962 31.09 36.8419 31.3464 36.982 31.6864C37.1033 31.981 37.0703 32.3384 37.0087 33.0053L36.8262 34.5431L36.7892 34.8991C36.6171 36.572 36.5491 37.2332 35.1368 38.5486C31.8803 40.2396 29.2008 40.4617 25.4958 40.444L23.5795 40.4082C23.3599 40.4072 23.1378 40.4092 22.9138 40.4131C22.7134 40.4165 22.5114 40.4214 22.3082 40.427C22.1414 40.4316 21.9739 40.4366 21.8058 40.4416C19.6357 40.507 17.3721 40.5751 15.478 39.693Z" fill="#00FD00"></path><path fill-rule="evenodd" clip-rule="evenodd" d="M283.907 1.26281L285.684 1.2461L287.585 1.23873L289.561 1.2289C290.939 1.22349 292.317 1.21972 293.696 1.21751C295.795 1.21194 297.894 1.19425 299.993 1.17614L301.862 1.17147C302.581 1.16984 303.299 1.16836 304.018 1.16721L305.907 1.14583C309.813 1.15714 313.795 1.29631 316.847 3.88222C319.472 6.68718 319.701 9.08436 319.73 12.6561L319.768 13.8542C319.798 17.5211 318.863 20.1363 316.274 22.9917C314.725 24.1935 313.499 24.8288 311.59 25.3878L313.356 26.5679C315.492 28.2519 316.089 29.6344 316.504 32.2543C316.567 37.117 315.191 42.3681 311.973 46.2734C308.503 49.3517 304.864 50.0537 300.211 50.0849L298.198 50.1016L293.809 50.1188C292.252 50.1242 290.695 50.128 289.138 50.1302C288.215 50.1323 287.293 50.1364 286.371 50.1415C285.782 50.1448 285.192 50.1486 284.603 50.1526L281.999 50.1716C280.485 50.1753 278.972 50.1783 277.458 50.1805L275.305 50.2019C270.702 50.1901 269.205 50.1862 267.995 49.5987C267.411 49.3156 266.894 48.8968 266.128 48.2761C264.074 44.5688 265.105 40.4744 266.086 36.5809L266.197 36.1379C266.241 35.9627 266.284 35.7879 266.327 35.6138L266.376 35.4157L266.44 35.1488L266.687 34.0739C266.78 33.668 266.873 33.2621 266.965 32.8561C267.331 31.2613 267.705 29.6683 268.084 28.0762C268.568 26.0478 269.035 24.0165 269.497 21.9837C269.856 20.4072 270.223 18.8322 270.591 17.2576C270.85 16.1489 271.104 15.0394 271.359 13.9298C272.697 8.35367 273.154 6.44962 274.208 4.96351C274.754 4.19293 275.461 3.53474 276.534 2.5352C278.877 1.411 281.306 1.28255 283.907 1.26281ZM285.787 12.7991C285.413 13.7418 285.221 14.226 285.083 14.7249C284.937 15.2517 284.85 15.795 284.674 16.9119L284.239 19.118L283.944 20.8101C286.747 20.86 289.55 20.8904 292.353 20.9174L294.761 20.961L297.083 20.9778L299.218 21.005C301.365 20.788 302.498 20.2879 304.218 19.0935C305.247 17.4663 305.777 15.8124 306.06 13.9436C305.767 13.188 305.624 12.8192 305.384 12.5301C305.155 12.2546 304.837 12.0515 304.218 11.6548C301.836 10.9153 299.467 10.9262 297.008 10.9375C296.573 10.9396 296.135 10.9416 295.694 10.9395L293.843 10.9037C291.577 10.8374 290.474 10.8052 289.444 11.0634C288.469 11.308 287.558 11.8144 285.787 12.7991ZM282.101 29.9655C282.028 30.2088 281.954 30.4523 281.881 30.6959C281.63 31.5361 281.385 32.3777 281.141 33.2199L280.601 35.0505C280.255 36.8503 280.261 37.9652 280.873 39.693C282.714 40.5508 284.883 40.4791 286.978 40.4098C287.549 40.3909 288.115 40.3722 288.667 40.3725L290.494 40.3937C293.87 40.4 296.755 40.2634 299.917 39.1208C301.632 37.2038 302.261 35.3121 302.374 32.8264C301.596 31.4144 301.094 30.7189 299.466 30.1947C297.736 29.9098 296.097 29.9016 294.34 29.9095L292.18 29.9152L289.934 29.9297L287.659 29.9375C285.806 29.9442 283.954 29.9537 282.101 29.9655Z" fill="#00FD00"></path><path d="M186.725 1.2991L188.398 1.30156C188.857 1.30237 189.317 1.30344 189.776 1.30483L193.636 1.31925L199.153 1.3317C200.167 1.33449 201.18 1.3376 202.194 1.34104L205.923 1.35496C205.626 4.90576 205.104 8.22121 204.08 11.6548L202.317 11.68C200.129 11.7152 197.943 11.7578 195.756 11.8049C195.222 11.8157 194.688 11.8255 194.154 11.8343C193.746 11.8411 193.339 11.8474 192.932 11.853C185.626 11.749 184.017 11.7261 179.883 13.5723C177.018 14.8516 174.453 16.7966 173.199 19.5155C171.44 23.3297 170.801 27.7098 170.714 31.7178L170.644 33.8122C170.697 34.7879 170.723 35.259 170.897 35.6676C171.06 36.0492 171.351 36.3762 171.916 37.0085C175.011 39.0782 178.271 39.3017 181.978 39.3577L183.367 39.3913L184.402 39.4143C184.99 39.4268 185.577 39.4384 186.165 39.4496C186.684 39.4595 187.204 39.469 187.723 39.4784C188.713 39.5003 189.702 39.5226 190.692 39.5455C193.107 39.6001 195.522 39.6484 197.937 39.693C197.897 40.1735 197.854 40.6539 197.811 41.1342L197.767 41.6201L197.706 42.268L197.577 43.7163C197.255 45.8639 196.686 47.8956 196.094 49.9928C192.729 50.0356 189.365 50.0666 186 50.087C184.858 50.0956 183.717 50.1073 182.575 50.1223C171.881 50.259 168.294 50.3049 165.273 49.0279C163.748 48.3833 162.367 47.4017 160.289 45.9247C155.83 41.3558 155.387 35.4174 155.641 29.5005C156.646 21.0882 159.13 11.3025 166.452 5.68232C172.644 1.81476 179.489 1.25847 186.725 1.2991Z" fill="#00FD00"></path><path d="M431.316 6.4656C431.542 5.19107 431.696 3.90369 432 1.35496H379.781L379.779 1.36553C379.16 3.95947 378.853 5.24505 378.622 6.54407C378.396 7.8186 378.242 9.1059 377.938 11.6548L396.368 12.227C395.503 16.0075 394.638 19.7879 393.778 23.5694C393.338 25.503 392.898 27.4367 392.456 29.3698C392.023 31.2574 391.591 33.1452 391.162 35.0335L390.669 37.2052C389.688 41.4653 388.801 45.6506 388.382 49.9928C389.973 50.0045 391.565 50.0139 393.156 50.0207L395.101 50.0285L397.039 50.0431L398.881 50.0486C399.887 50.0539 400.893 50.0426 401.897 49.9928C402.14 49.7663 402.287 49.6295 402.398 49.4681C402.566 49.2214 402.65 48.9171 402.861 48.1482L403.248 46.4433L403.69 44.515L404.163 42.411C404.581 40.5684 404.999 38.7258 405.414 36.8826C405.847 34.9535 406.282 33.0247 406.721 31.0967C406.93 30.1802 407.139 29.2634 407.347 28.3466L408.233 24.4222L408.706 22.3462L409.147 20.3742C409.415 19.1885 409.659 17.998 409.884 16.8047L410.498 11.6548H430.157C430.778 9.05364 431.085 7.76625 431.316 6.4656Z" fill="#00FD00"></path><path d="M246.275 1.29001L248.449 1.2991L250.795 1.30467L253.266 1.31925L255.743 1.32703C257.772 1.33383 259.8 1.34325 261.828 1.35496L261.823 1.36037C259.273 4.20137 258.44 5.12898 257.508 5.94453C257.324 6.1059 257.135 6.26286 256.929 6.42931C256.63 6.67063 256.294 6.93202 255.877 7.25592C253.83 8.87768 251.832 10.5382 249.848 12.227C247.905 13.8773 245.957 15.5182 243.974 17.1265L242.817 18.072C241.855 18.8505 240.884 19.6191 239.909 20.3831L238.214 21.7399L236.643 22.9782C235.255 24.404 234.907 25.198 234.797 27.1044C235.537 28.4204 236.262 29.3898 237.254 30.5376L238.37 31.834C239.543 33.1783 240.727 34.5142 241.913 35.8485C243.403 37.5313 244.878 39.2249 246.354 40.9184L247.994 42.7996C248.633 43.5319 249.271 44.2649 249.908 44.9988C250.675 45.8787 251.455 46.7495 252.236 47.619C252.803 48.3216 253.045 48.6226 253.149 48.9653C253.227 49.2222 253.227 49.5024 253.227 49.9928C242.802 50.7481 240.144 50.9408 237.825 50.1493C237.032 49.8785 236.278 49.4925 235.267 48.9745C234.132 47.6438 233.242 46.3202 232.407 44.811C231.267 42.95 229.838 41.255 228.414 39.5665C228.018 39.0967 227.622 38.6274 227.233 38.1551C222.18 31.9217 220.704 30.1015 220.476 28.1382C220.382 27.3299 220.5 26.4973 220.666 25.3229L220.667 25.3172L220.821 23.9528C221.984 20.3525 224.835 17.9519 227.728 15.516L228.193 15.1237L229.446 14.0505C231.833 12.0122 234.239 9.99542 236.693 8.02707C243.929 2.18133 244.838 1.44704 245.826 1.32031C245.968 1.30213 246.111 1.29648 246.275 1.29001Z" fill="#00FD00"></path><path d="M213.854 1.2991L212.148 1.29001C211.424 1.32588 210.983 1.34776 210.668 1.55746C210.179 1.88398 209.996 2.6657 209.53 4.66468L209.261 5.84992L209.021 6.88713C208.799 7.85054 208.577 8.8142 208.357 9.7781L207.71 12.6035C207.447 13.7501 207.183 14.8968 206.921 16.0436C206.733 16.8603 206.547 17.6771 206.36 18.4939C205.778 21.0465 205.194 23.5988 204.606 26.1502C204.148 28.1372 203.692 30.1244 203.237 32.1119L202.583 34.9722L202.306 36.1679C201.244 40.75 200.188 45.3059 199.78 49.9928C201.371 50.0045 202.963 50.0139 204.554 50.0207L206.499 50.0285L208.437 50.0431L210.279 50.0486C211.284 50.0539 212.291 50.0426 213.295 49.9928C213.479 49.8211 213.614 49.6957 213.725 49.5521C214.025 49.1617 214.148 48.6364 214.603 46.6845L214.872 45.4978C215.175 44.1887 215.477 42.8795 215.776 41.5696C215.991 40.6277 216.207 39.6859 216.423 38.7442C216.874 36.781 217.325 34.8176 217.773 32.8538C218.355 30.3012 218.939 27.7489 219.527 25.1975C219.985 23.2105 220.442 21.2234 220.896 19.2358L221.55 16.3755L221.827 15.1794L221.828 15.1763C222.89 10.5953 223.946 6.04054 224.353 1.35496C222.762 1.34325 221.171 1.33383 219.579 1.32703L217.634 1.31925L215.696 1.30467L213.854 1.2991Z" fill="#00FD00"></path></svg>